<svg width="83" height="22" viewBox="0 0 83 22" fill="none" xmlns="http://www.w3.org/2000/svg">
<g clip-path="url(#clip0)">
<path d="M21.67 13.6609C20.2008 19.5538 14.2319 23.1398 8.33834 21.6706C2.44749 20.2014 -1.13885 14.2325 0.330681 8.34C1.79918 2.44642 7.76771 -1.14026 13.6596 0.328929C19.5528 1.79811 23.1388 7.76766 21.6697 13.6609H21.67Z" fill="#212121"/>
<path d="M15.8502 9.43284C16.0688 7.96915 14.9544 7.18231 13.4305 6.6574L13.9248 4.67465L12.7176 4.37387L12.2363 6.30437C11.9194 6.22531 11.5935 6.15072 11.2697 6.07681L11.7544 4.13359L10.5482 3.83281L10.0535 5.81487C9.79089 5.75506 9.53307 5.69593 9.28282 5.63372L9.2842 5.62753L7.61976 5.21193L7.2987 6.501C7.2987 6.501 8.19417 6.70622 8.17526 6.71893C8.66407 6.84097 8.75276 7.16443 8.73764 7.42087L8.17457 9.67965C8.20826 9.68825 8.25192 9.70062 8.30004 9.71987L8.17285 9.68825L7.38326 12.8525C7.32345 13.001 7.17185 13.2237 6.83017 13.1392C6.8422 13.1567 5.95292 12.9202 5.95292 12.9202L5.35376 14.3021L6.9247 14.6936C7.21689 14.7668 7.50323 14.8435 7.78476 14.9157L7.28529 16.9214L8.49082 17.2222L8.98582 15.2381C9.31479 15.3275 9.63448 15.41 9.94729 15.4877L9.45435 17.4625L10.6613 17.7633L11.1607 15.7616C13.2188 16.1511 14.7667 15.994 15.4174 14.1329C15.9423 12.6342 15.3916 11.7697 14.3088 11.2056C15.0974 11.023 15.6914 10.5043 15.8498 9.43284H15.8502ZM13.0923 13.2997C12.7189 14.7984 10.1958 13.9886 9.37735 13.7851L10.0401 11.1282C10.8582 11.3324 13.4814 11.7367 13.0926 13.2997H13.0923ZM13.4652 9.41118C13.1249 10.7745 11.0246 10.0818 10.3429 9.91203L10.9438 7.50234C11.6255 7.67215 13.82 7.98909 13.4652 9.41118Z" fill="white"/>
</g>
<path d="M29.4091 17H34.4411C35.5771 17 36.4384 16.6853 37.0251 16.056C37.6117 15.4267 37.9051 14.6 37.9051 13.576C37.9051 12.9947 37.7611 12.4667 37.4731 11.992C37.1904 11.5173 36.7717 11.1627 36.2171 10.928C36.5744 10.7147 36.8544 10.4133 37.0571 10.024C37.2651 9.62933 37.3691 9.17067 37.3691 8.648C37.3691 8.13067 37.2464 7.62933 37.0011 7.144C36.7611 6.65867 36.3904 6.26133 35.8891 5.952C35.3931 5.63733 34.7557 5.48 33.9771 5.48H29.4091V17ZM31.3611 10.08V7.28H33.9531C34.4117 7.28 34.7691 7.41333 35.0251 7.68C35.2811 7.94667 35.4091 8.28 35.4091 8.68C35.4091 9.13867 35.2677 9.488 34.9851 9.728C34.7077 9.96267 34.3637 10.08 33.9531 10.08H31.3611ZM31.3611 15.184V11.88H34.2571C34.7957 11.88 35.2144 12.0373 35.5131 12.352C35.8117 12.6667 35.9611 13.056 35.9611 13.52C35.9611 14.032 35.7931 14.4373 35.4571 14.736C35.1264 15.0347 34.7077 15.184 34.2011 15.184H31.3611ZM39.6628 7.048H41.5908V5.28H39.6628V7.048ZM39.6628 17H41.5908V8.36H39.6628V17ZM49.0512 17V15.384C48.5125 15.464 48.0325 15.4853 47.6112 15.448C47.1899 15.4107 46.8832 15.232 46.6912 14.912C46.5899 14.7467 46.5339 14.5333 46.5232 14.272C46.5179 14.0053 46.5152 13.7013 46.5152 13.36V9.872H49.0512V8.36H46.5152V5.96H44.5952V8.36H43.0272V9.872H44.5952V13.472C44.5952 13.968 44.6005 14.4107 44.6112 14.8C44.6219 15.184 44.7259 15.5627 44.9232 15.936C45.1472 16.3467 45.4752 16.648 45.9072 16.84C46.3392 17.0267 46.8272 17.1253 47.3712 17.136C47.9205 17.152 48.4805 17.1067 49.0512 17ZM54.2236 17.24C55.1889 17.24 56.0049 17.0053 56.6716 16.536C57.3382 16.0613 57.8049 15.384 58.0716 14.504L56.1036 14.064C55.9542 14.5067 55.7302 14.8453 55.4316 15.08C55.1382 15.3147 54.7356 15.432 54.2236 15.432C53.4982 15.432 52.9516 15.1787 52.5836 14.672C52.2209 14.1653 52.0369 13.5013 52.0316 12.68C52.0369 11.8853 52.2129 11.2293 52.5596 10.712C52.9116 10.1893 53.4662 9.928 54.2236 9.928C54.6662 9.928 55.0609 10.0587 55.4076 10.32C55.7542 10.576 56.0022 10.936 56.1516 11.4L58.0716 10.88C57.8689 10.0267 57.4262 9.35467 56.7436 8.864C56.0609 8.368 55.2289 8.12 54.2476 8.12C53.3729 8.12 52.6182 8.31733 51.9836 8.712C51.3489 9.10133 50.8582 9.64 50.5116 10.328C50.1702 11.0107 49.9969 11.7947 49.9916 12.68C49.9969 13.5493 50.1649 14.328 50.4956 15.016C50.8316 15.704 51.3142 16.248 51.9436 16.648C52.5729 17.0427 53.3329 17.24 54.2236 17.24ZM63.2563 17.24C64.1203 17.24 64.875 17.048 65.5203 16.664C66.1656 16.2747 66.667 15.7387 67.0243 15.056C67.387 14.368 67.5683 13.576 67.5683 12.68C67.5683 11.7893 67.3896 11.0027 67.0323 10.32C66.675 9.632 66.1736 9.09333 65.5283 8.704C64.883 8.31467 64.1256 8.12 63.2563 8.12C62.4083 8.12 61.6616 8.312 61.0163 8.696C60.371 9.08 59.867 9.61333 59.5043 10.296C59.1416 10.9787 58.9603 11.7733 58.9603 12.68C58.9603 13.5707 59.1363 14.36 59.4883 15.048C59.8456 15.7307 60.347 16.2667 60.9923 16.656C61.6376 17.0453 62.3923 17.24 63.2563 17.24ZM63.2563 15.432C62.515 15.432 61.9523 15.184 61.5683 14.688C61.1896 14.1867 61.0003 13.5173 61.0003 12.68C61.0003 11.864 61.1816 11.2027 61.5443 10.696C61.9123 10.184 62.483 9.928 63.2563 9.928C64.0136 9.928 64.5816 10.1787 64.9603 10.68C65.339 11.176 65.5283 11.8427 65.5283 12.68C65.5283 13.4907 65.339 14.152 64.9603 14.664C64.587 15.176 64.019 15.432 63.2563 15.432ZM69.4909 7.048H71.4189V5.28H69.4909V7.048ZM69.4909 17H71.4189V8.36H69.4909V17ZM73.7993 17H75.7513V12.56C75.7513 11.8613 75.85 11.3227 76.0473 10.944C76.25 10.56 76.506 10.296 76.8153 10.152C77.13 10.0027 77.45 9.928 77.7753 9.928C78.234 9.928 78.5993 10.0293 78.8713 10.232C79.1433 10.4293 79.3433 10.6827 79.4713 10.992C79.6046 11.296 79.69 11.6133 79.7273 11.944C79.77 12.2747 79.7913 12.5733 79.7913 12.84V17H81.7433V12.176C81.7433 11.9733 81.7246 11.704 81.6873 11.368C81.6553 11.032 81.5806 10.6773 81.4633 10.304C81.346 9.93067 81.1646 9.57867 80.9193 9.248C80.674 8.912 80.3406 8.64 79.9193 8.432C79.5033 8.21867 78.978 8.112 78.3433 8.112C77.7193 8.112 77.17 8.22133 76.6953 8.44C76.226 8.65333 75.834 8.94667 75.5193 9.32V8.36H73.7993V17Z" fill="#212121"/>
<defs>
<clipPath id="clip0">
<rect width="22" height="22" fill="white"/>
</clipPath>
</defs>
</svg>
