<svg width="97" height="22" viewBox="0 0 97 22" fill="none" xmlns="http://www.w3.org/2000/svg">
<g clip-path="url(#clip0)">
<path d="M6.75201 0L6.60455 0.501202V15.0449L6.75201 15.1921L13.503 11.2016L6.75201 0Z" fill="#343434"/>
<path d="M6.75221 0L0.0012207 11.2015L6.75221 15.1921V8.13302V0Z" fill="#8C8C8C"/>
<path d="M6.75192 16.4703L6.66882 16.5716V21.7524L6.75192 21.995L13.507 12.4818L6.75192 16.4703Z" fill="#3C3C3B"/>
<path d="M6.75209 21.9951V16.4702L0.00109863 12.4817L6.75209 21.9951Z" fill="#8C8C8C"/>
<path d="M6.75201 15.1921L13.5029 11.2016L6.75201 8.13309V15.1921Z" fill="#141414"/>
<path d="M0.00109863 11.2015L6.75199 15.192V8.13303L0.00109863 11.2015Z" fill="#393939"/>
</g>
<path d="M21.0342 17H28.4742V15.192H22.9622V11.936H27.5142V10.128H22.9622V7.288H28.4742V5.48H21.0342V17ZM35.4576 17V15.384C34.919 15.464 34.439 15.4853 34.0176 15.448C33.5963 15.4107 33.2896 15.232 33.0976 14.912C32.9963 14.7467 32.9403 14.5333 32.9296 14.272C32.9243 14.0053 32.9216 13.7013 32.9216 13.36V9.872H35.4576V8.36H32.9216V5.96H31.0016V8.36H29.4336V9.872H31.0016V13.472C31.0016 13.968 31.007 14.4107 31.0176 14.8C31.0283 15.184 31.1323 15.5627 31.3296 15.936C31.5536 16.3467 31.8816 16.648 32.3136 16.84C32.7456 17.0267 33.2336 17.1253 33.7776 17.136C34.327 17.152 34.887 17.1067 35.4576 17ZM37.2995 17H39.2515V12.56C39.2515 11.8613 39.3502 11.3227 39.5475 10.944C39.7502 10.56 40.0062 10.296 40.3155 10.152C40.6302 10.0027 40.9502 9.928 41.2755 9.928C41.7342 9.928 42.0995 10.0293 42.3715 10.232C42.6435 10.4293 42.8435 10.6827 42.9715 10.992C43.1048 11.296 43.1902 11.6133 43.2275 11.944C43.2702 12.2747 43.2915 12.5733 43.2915 12.84V17H45.2435V12.176C45.2435 11.9733 45.2248 11.704 45.1875 11.368C45.1555 11.032 45.0808 10.6773 44.9635 10.304C44.8462 9.93067 44.6648 9.57867 44.4195 9.248C44.1742 8.912 43.8408 8.64 43.4195 8.432C43.0035 8.21867 42.4782 8.112 41.8435 8.112C41.2195 8.112 40.6702 8.22133 40.1955 8.44C39.7262 8.65333 39.3342 8.94667 39.0195 9.32V5.48H37.2995V17ZM51.2591 17.24C52.0911 17.24 52.8511 17.0267 53.5391 16.6C54.2325 16.168 54.7445 15.56 55.0751 14.776L53.1711 14.2C52.7871 15.0213 52.1125 15.432 51.1471 15.432C50.4911 15.432 49.9738 15.2427 49.5951 14.864C49.2165 14.48 48.9898 13.9307 48.9151 13.216H55.1711C55.2458 12.176 55.1311 11.2747 54.8271 10.512C54.5231 9.74933 54.0565 9.16 53.4271 8.744C52.8031 8.328 52.0431 8.12 51.1471 8.12C50.2991 8.12 49.5525 8.312 48.9071 8.696C48.2618 9.07467 47.7578 9.61333 47.3951 10.312C47.0325 11.0107 46.8511 11.832 46.8511 12.776C46.8511 13.6507 47.0351 14.424 47.4031 15.096C47.7765 15.768 48.2938 16.2933 48.9551 16.672C49.6165 17.0507 50.3845 17.24 51.2591 17.24ZM51.2271 9.808C51.8245 9.808 52.2831 9.96533 52.6031 10.28C52.9285 10.5893 53.1338 11.0827 53.2191 11.76H48.9631C49.1925 10.4587 49.9471 9.808 51.2271 9.808ZM56.9561 17H58.8921V12.608C58.8921 12.1067 58.9828 11.6613 59.1641 11.272C59.3508 10.8827 59.6415 10.5813 60.0361 10.368C60.3028 10.2133 60.6015 10.1227 60.9321 10.096C61.2628 10.064 61.5588 10.0853 61.8201 10.16V8.36C61.4308 8.30133 61.0308 8.30933 60.6201 8.384C60.2095 8.45333 59.8441 8.59733 59.5241 8.816C59.3428 8.928 59.1801 9.064 59.0361 9.224C58.8921 9.37867 58.7668 9.552 58.6601 9.744V8.36H56.9561V17ZM67.1185 17.24C67.9505 17.24 68.7105 17.0267 69.3985 16.6C70.0918 16.168 70.6038 15.56 70.9345 14.776L69.0305 14.2C68.6465 15.0213 67.9718 15.432 67.0065 15.432C66.3505 15.432 65.8332 15.2427 65.4545 14.864C65.0758 14.48 64.8492 13.9307 64.7745 13.216H71.0305C71.1052 12.176 70.9905 11.2747 70.6865 10.512C70.3825 9.74933 69.9158 9.16 69.2865 8.744C68.6625 8.328 67.9025 8.12 67.0065 8.12C66.1585 8.12 65.4118 8.312 64.7665 8.696C64.1212 9.07467 63.6172 9.61333 63.2545 10.312C62.8918 11.0107 62.7105 11.832 62.7105 12.776C62.7105 13.6507 62.8945 14.424 63.2625 15.096C63.6358 15.768 64.1532 16.2933 64.8145 16.672C65.4758 17.0507 66.2438 17.24 67.1185 17.24ZM67.0865 9.808C67.6838 9.808 68.1425 9.96533 68.4625 10.28C68.7878 10.5893 68.9932 11.0827 69.0785 11.76H64.8225C65.0518 10.4587 65.8065 9.808 67.0865 9.808ZM76.0555 17.248C76.6795 17.248 77.2262 17.1413 77.6955 16.928C78.1702 16.7093 78.5648 16.4133 78.8795 16.04V17H80.5835V8.36H78.6475V12.8C78.6475 13.4987 78.5462 14.04 78.3435 14.424C78.1462 14.8027 77.8928 15.0667 77.5835 15.216C77.2742 15.36 76.9542 15.432 76.6235 15.432C76.1648 15.432 75.7995 15.3333 75.5275 15.136C75.2555 14.9333 75.0528 14.68 74.9195 14.376C74.7915 14.0667 74.7062 13.7467 74.6635 13.416C74.6262 13.0853 74.6075 12.7867 74.6075 12.52V8.36H72.6555V13.184C72.6555 13.3867 72.6715 13.656 72.7035 13.992C72.7408 14.328 72.8182 14.6827 72.9355 15.056C73.0528 15.4293 73.2342 15.784 73.4795 16.12C73.7248 16.4507 74.0555 16.7227 74.4715 16.936C74.8928 17.144 75.4208 17.248 76.0555 17.248ZM82.8151 17H84.7591V11.68C84.7591 11.1413 84.9058 10.704 85.1991 10.368C85.4978 10.032 85.8925 9.864 86.3831 9.864C86.8898 9.864 87.2898 10.032 87.5831 10.368C87.8765 10.704 88.0231 11.1733 88.0231 11.776V17H89.9431V11.68C89.9431 11.1093 90.0978 10.664 90.4071 10.344C90.7218 10.024 91.1111 9.864 91.5751 9.864C92.0711 9.864 92.4658 10.032 92.7591 10.368C93.0578 10.6987 93.2071 11.16 93.2071 11.752V17H95.1351V11.264C95.1351 10.3253 94.8791 9.57067 94.3671 9C93.8605 8.42933 93.1298 8.144 92.1751 8.144C91.6151 8.144 91.1031 8.26667 90.6391 8.512C90.1751 8.75733 89.8098 9.09333 89.5431 9.52C89.3138 9.09867 88.9885 8.76533 88.5671 8.52C88.1458 8.26933 87.6311 8.144 87.0231 8.144C86.5058 8.144 86.0285 8.248 85.5911 8.456C85.1591 8.65867 84.8018 8.93867 84.5191 9.296V8.36H82.8151V17Z" fill="white"/>
<defs>
<clipPath id="clip0">
<rect width="13.508" height="22" fill="white"/>
</clipPath>
</defs>
</svg>
