<svg width="97" height="22" viewBox="0 0 97 22" fill="none" xmlns="http://www.w3.org/2000/svg">
<g clip-path="url(#clip0)">
<path d="M6.75195 0L6.60449 0.501202V15.0449L6.75195 15.1921L13.5029 11.2016L6.75195 0Z" fill="#343434"/>
<path d="M6.75221 0L0.0012207 11.2015L6.75221 15.1921V8.13302V0Z" fill="#8C8C8C"/>
<path d="M6.75192 16.4703L6.66882 16.5716V21.7524L6.75192 21.995L13.507 12.4818L6.75192 16.4703Z" fill="#3C3C3B"/>
<path d="M6.75209 21.9951V16.4702L0.00109863 12.4817L6.75209 21.9951Z" fill="#8C8C8C"/>
<path d="M6.75195 15.1921L13.5028 11.2016L6.75195 8.13309V15.1921Z" fill="#141414"/>
<path d="M0.00109863 11.2015L6.75199 15.192V8.13304L0.00109863 11.2015Z" fill="#393939"/>
</g>
<path d="M21.0343 17H28.4743V15.192H22.9623V11.936H27.5143V10.128H22.9623V7.288H28.4743V5.48H21.0343V17ZM35.4577 17V15.384C34.919 15.464 34.439 15.4853 34.0177 15.448C33.5963 15.4107 33.2897 15.232 33.0977 14.912C32.9963 14.7467 32.9403 14.5333 32.9297 14.272C32.9243 14.0053 32.9217 13.7013 32.9217 13.36V9.872H35.4577V8.36H32.9217V5.96H31.0017V8.36H29.4337V9.872H31.0017V13.472C31.0017 13.968 31.007 14.4107 31.0177 14.8C31.0283 15.184 31.1323 15.5627 31.3297 15.936C31.5537 16.3467 31.8817 16.648 32.3137 16.84C32.7457 17.0267 33.2337 17.1253 33.7777 17.136C34.327 17.152 34.887 17.1067 35.4577 17ZM37.2996 17H39.2516V12.56C39.2516 11.8613 39.3502 11.3227 39.5476 10.944C39.7502 10.56 40.0062 10.296 40.3156 10.152C40.6302 10.0027 40.9502 9.928 41.2756 9.928C41.7342 9.928 42.0996 10.0293 42.3716 10.232C42.6436 10.4293 42.8436 10.6827 42.9716 10.992C43.1049 11.296 43.1902 11.6133 43.2276 11.944C43.2702 12.2747 43.2916 12.5733 43.2916 12.84V17H45.2436V12.176C45.2436 11.9733 45.2249 11.704 45.1876 11.368C45.1556 11.032 45.0809 10.6773 44.9636 10.304C44.8462 9.93067 44.6649 9.57867 44.4196 9.248C44.1742 8.912 43.8409 8.64 43.4196 8.432C43.0036 8.21867 42.4782 8.112 41.8436 8.112C41.2196 8.112 40.6702 8.22133 40.1956 8.44C39.7262 8.65333 39.3342 8.94667 39.0196 9.32V5.48H37.2996V17ZM51.2592 17.24C52.0912 17.24 52.8512 17.0267 53.5392 16.6C54.2325 16.168 54.7445 15.56 55.0752 14.776L53.1712 14.2C52.7872 15.0213 52.1125 15.432 51.1472 15.432C50.4912 15.432 49.9738 15.2427 49.5952 14.864C49.2165 14.48 48.9898 13.9307 48.9152 13.216H55.1712C55.2458 12.176 55.1312 11.2747 54.8272 10.512C54.5232 9.74933 54.0565 9.16 53.4272 8.744C52.8032 8.328 52.0432 8.12 51.1472 8.12C50.2992 8.12 49.5525 8.312 48.9072 8.696C48.2618 9.07467 47.7578 9.61333 47.3952 10.312C47.0325 11.0107 46.8512 11.832 46.8512 12.776C46.8512 13.6507 47.0352 14.424 47.4032 15.096C47.7765 15.768 48.2938 16.2933 48.9552 16.672C49.6165 17.0507 50.3845 17.24 51.2592 17.24ZM51.2272 9.808C51.8245 9.808 52.2832 9.96533 52.6032 10.28C52.9285 10.5893 53.1338 11.0827 53.2192 11.76H48.9632C49.1925 10.4587 49.9472 9.808 51.2272 9.808ZM56.9562 17H58.8922V12.608C58.8922 12.1067 58.9828 11.6613 59.1642 11.272C59.3508 10.8827 59.6415 10.5813 60.0362 10.368C60.3028 10.2133 60.6015 10.1227 60.9322 10.096C61.2628 10.064 61.5588 10.0853 61.8202 10.16V8.36C61.4308 8.30133 61.0308 8.30933 60.6202 8.384C60.2095 8.45333 59.8442 8.59733 59.5242 8.816C59.3428 8.928 59.1802 9.064 59.0362 9.224C58.8922 9.37867 58.7668 9.552 58.6602 9.744V8.36H56.9562V17ZM67.1186 17.24C67.9506 17.24 68.7106 17.0267 69.3986 16.6C70.0919 16.168 70.6039 15.56 70.9346 14.776L69.0306 14.2C68.6466 15.0213 67.9719 15.432 67.0066 15.432C66.3506 15.432 65.8332 15.2427 65.4546 14.864C65.0759 14.48 64.8492 13.9307 64.7746 13.216H71.0306C71.1052 12.176 70.9906 11.2747 70.6866 10.512C70.3826 9.74933 69.9159 9.16 69.2866 8.744C68.6626 8.328 67.9026 8.12 67.0066 8.12C66.1586 8.12 65.4119 8.312 64.7666 8.696C64.1212 9.07467 63.6172 9.61333 63.2546 10.312C62.8919 11.0107 62.7106 11.832 62.7106 12.776C62.7106 13.6507 62.8946 14.424 63.2626 15.096C63.6359 15.768 64.1532 16.2933 64.8146 16.672C65.4759 17.0507 66.2439 17.24 67.1186 17.24ZM67.0866 9.808C67.6839 9.808 68.1426 9.96533 68.4626 10.28C68.7879 10.5893 68.9932 11.0827 69.0786 11.76H64.8226C65.0519 10.4587 65.8066 9.808 67.0866 9.808ZM76.0556 17.248C76.6796 17.248 77.2262 17.1413 77.6956 16.928C78.1702 16.7093 78.5649 16.4133 78.8796 16.04V17H80.5836V8.36H78.6476V12.8C78.6476 13.4987 78.5462 14.04 78.3436 14.424C78.1462 14.8027 77.8929 15.0667 77.5836 15.216C77.2742 15.36 76.9542 15.432 76.6236 15.432C76.1649 15.432 75.7996 15.3333 75.5276 15.136C75.2556 14.9333 75.0529 14.68 74.9196 14.376C74.7916 14.0667 74.7062 13.7467 74.6636 13.416C74.6262 13.0853 74.6076 12.7867 74.6076 12.52V8.36H72.6556V13.184C72.6556 13.3867 72.6716 13.656 72.7036 13.992C72.7409 14.328 72.8182 14.6827 72.9356 15.056C73.0529 15.4293 73.2342 15.784 73.4796 16.12C73.7249 16.4507 74.0556 16.7227 74.4716 16.936C74.8929 17.144 75.4209 17.248 76.0556 17.248ZM82.8152 17H84.7592V11.68C84.7592 11.1413 84.9058 10.704 85.1992 10.368C85.4978 10.032 85.8925 9.864 86.3832 9.864C86.8898 9.864 87.2898 10.032 87.5832 10.368C87.8765 10.704 88.0232 11.1733 88.0232 11.776V17H89.9432V11.68C89.9432 11.1093 90.0978 10.664 90.4072 10.344C90.7218 10.024 91.1112 9.864 91.5752 9.864C92.0712 9.864 92.4658 10.032 92.7592 10.368C93.0578 10.6987 93.2072 11.16 93.2072 11.752V17H95.1352V11.264C95.1352 10.3253 94.8792 9.57067 94.3672 9C93.8605 8.42933 93.1298 8.144 92.1752 8.144C91.6152 8.144 91.1032 8.26667 90.6392 8.512C90.1752 8.75733 89.8098 9.09333 89.5432 9.52C89.3138 9.09867 88.9885 8.76533 88.5672 8.52C88.1458 8.26933 87.6312 8.144 87.0232 8.144C86.5058 8.144 86.0285 8.248 85.5912 8.456C85.1592 8.65867 84.8018 8.93867 84.5192 9.296V8.36H82.8152V17Z" fill="#212121"/>
<defs>
<clipPath id="clip0">
<rect width="13.508" height="22" fill="white"/>
</clipPath>
</defs>
</svg>
