<svg width="48" height="48" viewBox="0 0 48 48" fill="none" xmlns="http://www.w3.org/2000/svg">
<circle cx="24" cy="24" r="24" fill="#3861FB"/>
<path d="M24.5 14.0964L34.9945 18.8129C34.9953 18.8527 34.9961 18.8944 34.9968 18.9378C35.0042 19.4068 35.0013 20.0811 34.9594 20.8918C34.8752 22.5189 34.6352 24.6679 34.0207 26.8007C33.4041 28.9405 32.4301 30.9954 30.9239 32.5056C29.4438 33.9895 27.3999 35 24.5 35C21.6001 35 19.5562 33.9895 18.0761 32.5056C16.5699 30.9954 15.5959 28.9405 14.9793 26.8007C14.3648 24.6679 14.1248 22.5189 14.0406 20.8918C13.9987 20.0811 13.9958 19.4068 14.0032 18.9378C14.0039 18.8944 14.0047 18.8527 14.0055 18.8129L24.5 14.0964Z" stroke="white" stroke-width="2" stroke-linecap="round" stroke-linejoin="round"/>
</svg>
