<svg width="48" height="48" viewBox="0 0 48 48" fill="none" xmlns="http://www.w3.org/2000/svg">
<circle cx="24" cy="24" r="24" fill="#3861FB"/>
<path fill-rule="evenodd" clip-rule="evenodd" d="M24.5 33.125H21.625V35.2812C21.625 35.678 21.9463 36 22.3438 36H23.0625V34.5625H24.5V36H25.9375V31.6875H24.5V33.125ZM13 24.5V25.9375H14.4375V24.5H13ZM14.4375 27.375H17.3125V25.9375H14.4375V27.375ZM13.7188 21.625C13.3213 21.625 13 21.9463 13 22.3438V23.0625H14.4375V21.625H13.7188ZM21.625 24.5V27.375H23.0625V24.5H21.625ZM33.125 27.375H34.5625V25.9375H33.125V27.375ZM13.7188 20.1875H19.4688C19.8655 20.1875 20.1875 19.8655 20.1875 19.4688V13.7188C20.1875 13.3213 19.8655 13 19.4688 13H13.7188C13.3213 13 13 13.3213 13 13.7188V19.4688C13 19.8655 13.3213 20.1875 13.7188 20.1875ZM14.4375 14.4375H18.75V18.75H14.4375V14.4375ZM17.3125 31.6875H15.875V33.125H17.3125V31.6875ZM15.875 17.3125H17.3125V15.875H15.875V17.3125ZM35.2812 28.8125H29.5312C29.1338 28.8125 28.8125 29.1338 28.8125 29.5312V35.2812C28.8125 35.678 29.1338 36 29.5312 36H35.2812C35.678 36 36 35.678 36 35.2812V29.5312C36 29.1338 35.678 28.8125 35.2812 28.8125ZM34.5625 34.5625H30.25V30.25H34.5625V34.5625ZM36 25.9375V24.5H34.5625V25.9375H36ZM33.125 31.6875H31.6875V33.125H33.125V31.6875ZM19.4688 28.8125H13.7188C13.3213 28.8125 13 29.1338 13 29.5312V35.2812C13 35.678 13.3213 36 13.7188 36H19.4688C19.8655 36 20.1875 35.678 20.1875 35.2812V29.5312C20.1875 29.1338 19.8655 28.8125 19.4688 28.8125ZM18.75 34.5625H14.4375V30.25H18.75V34.5625ZM23.0625 30.25V28.8125H21.625V31.6875H24.5V30.25H23.0625ZM31.6875 21.625H30.25V23.0625H31.6875V21.625ZM24.5 23.0625H23.0625V24.5H24.5V23.0625ZM25.9375 23.0625V24.5H27.375V25.9375H25.9375V24.5H24.5V27.375H23.0625V28.8125H24.5V30.25H25.9375V31.6875H27.375V28.8125H25.9375V27.375H28.8125V24.5H30.25V23.0625H25.9375ZM24.5 18.75H23.0625V20.1875H24.5V18.75ZM25.9375 23.0625V21.625H27.375V20.1875H24.5V23.0625H25.9375ZM35.2812 13H29.5312C29.1338 13 28.8125 13.3213 28.8125 13.7188V19.4688C28.8125 19.8655 29.1338 20.1875 29.5312 20.1875H35.2812C35.678 20.1875 36 19.8655 36 19.4688V13.7188C36 13.3213 35.678 13 35.2812 13ZM34.5625 18.75H30.25V14.4375H34.5625V18.75ZM33.125 15.875H31.6875V17.3125H33.125V15.875ZM35.2812 21.625H33.125V23.0625H31.6875V24.5H30.25V25.9375H33.125V24.5H34.5625V23.0625H36V22.3438C36 21.9463 35.678 21.625 35.2812 21.625ZM21.625 15.875V18.75H23.0625V15.875H21.625ZM17.3125 23.0625H18.75V21.625H15.875V23.0625H14.4375V24.5H17.3125V23.0625ZM21.625 20.1875V21.625H20.1875V23.0625H23.0625V20.1875H21.625ZM18.75 24.5H17.3125V25.9375H18.75V27.375H20.1875V23.0625H18.75V24.5ZM25.9375 18.75V17.3125H27.375V15.875H24.5V18.75H25.9375ZM24.5 14.4375H23.0625V15.875H24.5V14.4375ZM22.3438 13C21.9463 13 21.625 13.3213 21.625 13.7188V14.4375H23.0625V13H22.3438ZM27.375 13.7188C27.375 13.3213 27.053 13 26.6562 13H24.5V14.4375H27.375V13.7188Z" fill="white"/>
</svg>
