<svg width="140" height="31" viewBox="0 0 140 31" fill="none" xmlns="http://www.w3.org/2000/svg">
<path d="M0.825562 15.5483L10.1965 21.0847V0L0.825562 15.5483Z" fill="#3861FB"/>
<path opacity="0.9" d="M10.1965 0V21.0847L19.5638 15.5483L10.1965 0Z" fill="#3861FB"/>
<path d="M0.825562 17.3237L10.1965 30.5256V22.8601L0.825562 17.3237Z" fill="#3861FB"/>
<path opacity="0.9" d="M10.1965 22.8601V30.5256L19.5712 17.3237L10.1965 22.8601Z" fill="#3861FB"/>
<path opacity="0.2" d="M10.1965 11.2864L0.825562 15.5483L10.1965 21.0847L19.5638 15.5483L10.1965 11.2864Z" fill="#010101"/>
<path d="M40.4026 17.6259C40.4026 17.8673 40.2005 18.0638 39.9591 18.0638H31.4142C31.6275 20.1748 33.2163 22.1005 35.4508 22.1005C36.9779 22.1005 38.112 21.5166 38.9654 20.2983C39.0889 20.1298 39.2742 20.0232 39.51 20.1242C39.6391 20.1804 39.7289 20.2983 39.7514 20.433C39.7738 20.5734 39.7345 20.652 39.6952 20.7306C38.8362 22.2296 37.1239 22.9651 35.4452 22.9651C32.5707 22.9651 30.5215 20.3937 30.5215 17.6427C30.5215 14.8917 32.5707 12.3204 35.4452 12.3204C38.3197 12.3148 40.397 14.8805 40.4026 17.6259ZM39.4875 17.2104C39.3022 15.0994 37.6853 13.1737 35.4508 13.1737C33.2163 13.1737 31.6275 15.0994 31.4142 17.2104H39.4875ZM50.7722 12.5281C51.0192 12.5281 51.1989 12.7414 51.1989 12.9548C51.1989 13.2018 51.0136 13.3815 50.7722 13.3815H48.4816V22.3699C48.4816 22.5833 48.2963 22.7966 48.0549 22.7966C47.8079 22.7966 47.6282 22.5833 47.6282 22.3699V13.3815H45.4274C45.1804 13.3815 45.0007 13.1962 45.0007 12.9548C45.0007 12.7414 45.186 12.5281 45.4274 12.5281H47.6282V9.23813C47.6282 9.0304 47.7686 8.83952 47.9707 8.80583C48.257 8.76092 48.4816 8.95742 48.4816 9.2269V12.5281H50.7722ZM64.7462 16.8736V22.3194C64.7462 22.5664 64.5328 22.7461 64.3195 22.7461C64.0725 22.7461 63.8928 22.5608 63.8928 22.3194V16.8736C63.8928 15.0377 62.8542 13.2018 60.8049 13.2018C58.1775 13.2018 57.0434 15.4981 57.195 17.8504C57.195 17.9122 57.223 18.1873 57.223 18.2154V22.3026C57.223 22.5103 57.0827 22.7012 56.8806 22.7349C56.5942 22.7798 56.3697 22.5833 56.3697 22.3138V4.42668C56.3697 4.21334 56.5549 4 56.7963 4C57.0434 4 57.223 4.21334 57.223 4.42668V14.5492C57.9585 13.2355 59.2722 12.3484 60.7993 12.3484C63.3089 12.3484 64.7462 14.5492 64.7462 16.8736ZM80.0676 17.6259C80.0676 17.8673 79.8654 18.0638 79.624 18.0638H71.0735C71.2868 20.1748 72.8757 22.1005 75.1101 22.1005C76.6372 22.1005 77.7713 21.5166 78.6247 20.2983C78.7482 20.1298 78.9335 20.0232 79.1693 20.1242C79.2984 20.1804 79.3882 20.2983 79.4107 20.433C79.4331 20.5734 79.3938 20.652 79.3545 20.7306C78.4956 22.2296 76.7832 22.9651 75.1045 22.9651C72.23 22.9651 70.1808 20.3937 70.1808 17.6427C70.1808 14.8917 72.23 12.3204 75.1045 12.3204C77.9847 12.3148 80.0619 14.8805 80.0676 17.6259ZM79.1468 17.2104C78.9615 15.0994 77.3446 13.1737 75.1101 13.1737C72.8757 13.1737 71.2868 15.0994 71.0735 17.2104H79.1468ZM90.555 12.9267C90.555 13.2018 90.4035 13.3534 90.1564 13.3871C87.6468 13.752 86.5184 15.8012 86.5184 18.1873V22.2745C86.5184 22.4822 86.378 22.6731 86.1759 22.7068C85.8896 22.7517 85.665 22.5552 85.665 22.2857V12.9716C85.665 12.7639 85.8054 12.573 86.0075 12.5393C86.2938 12.4944 86.5184 12.6909 86.5184 12.9604V14.858C87.2202 13.6678 88.6293 12.5337 90.0947 12.5337C90.308 12.5281 90.555 12.6853 90.555 12.9267ZM104.591 17.6259C104.591 17.8673 104.389 18.0638 104.147 18.0638H95.6023C95.8156 20.1748 97.4045 22.1005 99.639 22.1005C101.166 22.1005 102.3 21.5166 103.154 20.2983C103.277 20.1298 103.462 20.0232 103.698 20.1242C103.827 20.1804 103.917 20.2983 103.94 20.433C103.962 20.5734 103.923 20.652 103.883 20.7306C103.024 22.2296 101.312 22.9651 99.6333 22.9651C96.7588 22.9651 94.7096 20.3937 94.7096 17.6427C94.7096 14.8917 96.7588 12.3204 99.6333 12.3204C102.508 12.3148 104.585 14.8805 104.591 17.6259ZM103.676 17.2104C103.49 15.0994 101.873 13.1737 99.639 13.1737C97.4045 13.1737 95.8156 15.0994 95.6023 17.2104H103.676ZM118.385 13.0334V22.3699C118.385 22.617 118.172 22.7966 117.958 22.7966C117.711 22.7966 117.532 22.6114 117.532 22.3699V20.5958C116.83 22.005 115.572 23.01 113.983 23.01C111.446 23.01 110.037 20.8092 110.037 18.4849V13.0109C110.037 12.7976 110.222 12.5842 110.463 12.5842C110.71 12.5842 110.89 12.7976 110.89 13.0109V18.4849C110.89 20.3207 111.929 22.1566 113.978 22.1566C116.852 22.1566 117.526 19.4674 117.526 16.4974V13.0109C117.526 12.7639 117.773 12.5113 118.076 12.6011C118.262 12.6628 118.385 12.8425 118.385 13.0334ZM140 16.8399V22.3138C140 22.5608 139.787 22.7405 139.573 22.7405C139.326 22.7405 139.147 22.5552 139.147 22.3138V16.8399C139.147 15.004 138.108 13.2018 136.059 13.2018C133.487 13.2018 132.511 15.9528 132.511 18.0919V22.3138C132.511 22.5608 132.297 22.7405 132.084 22.7405C131.837 22.7405 131.657 22.5552 131.657 22.3138V16.8399C131.657 15.004 130.619 13.2018 128.569 13.2018C125.97 13.2018 124.898 15.251 124.993 17.974C124.993 18.0357 125.021 18.1592 124.993 18.1873V22.3026C124.993 22.5103 124.853 22.7012 124.645 22.7349C124.359 22.7798 124.134 22.5833 124.134 22.3138V12.9716C124.134 12.7639 124.274 12.573 124.477 12.5393C124.763 12.4944 124.987 12.6909 124.987 12.9604V14.5212C125.723 13.2074 127.037 12.3484 128.564 12.3484C130.304 12.3484 131.652 13.4488 132.202 15.0714C132.904 13.4825 134.279 12.3484 136.053 12.3484C138.563 12.3484 140 14.5156 140 16.8399Z" fill="#3861FB"/>
</svg>
